<svg xmlns="http://www.w3.org/2000/svg" viewBox="0 0 312.6 312.6"><path d="M302.6 0H10A10 10 0 000 10v292.6a10 10 0 0010 10h292.6a10 10 0 0010-10V10a10 10 0 00-10-10zm-159 173.7c0 18.6-10.4 30.2-27.2 30.2-10.6 0-20-5.3-26.6-14.9a9.3 9.3 0 0115.4-10.5c3.1 4.5 6.9 6.8 11.2 6.8 3.4 0 8.6 0 8.6-11.6v-47.4H99.5a9.3 9.3 0 110-18.7h34.8c5.2 0 9.3 4.2 9.3 9.3v56.8zm45.8 31.9a47 47 0 01-33.2-13.8 9.3 9.3 0 0113.5-12.8c4.5 4.8 12.4 8 19.7 8 7.5 0 16.3-2.2 16.3-8.4 0-5.8-3-8-17.4-12.3-12.7-3.9-31.9-9.7-31.9-31.8 0-16.5 14.3-27.5 35.6-27.5 9.5 0 19.8 2.8 27 7.5A9.3 9.3 0 01209 130c-4.1-2.6-11-4.5-16.9-4.5-7.8 0-17 2.3-17 9 0 7.1 4.3 9.5 18.7 13.8 12.3 3.7 30.8 9.4 30.6 30.3 0 16-14 26.9-34.9 26.9z"/></svg>